<?xml version="1.0" encoding="UTF-8"?>
<svg id="Layer_2" data-name="Layer 2" xmlns="http://www.w3.org/2000/svg" xmlns:xlink="http://www.w3.org/1999/xlink" viewBox="0 0 1082.34 188.68">
  <defs>
    <style>
      .cls-1 {
        fill: #fff;
      }

      .cls-2 {
        fill: #00cd17;
      }

      .cls-3 {
        fill: url(#linear-gradient);
      }
    </style>
    <linearGradient id="linear-gradient" x1="1.43" y1="46.38" x2="66.2" y2="146.99" gradientUnits="userSpaceOnUse">
      <stop offset=".37" stop-color="#c7f200"/>
      <stop offset=".84" stop-color="#00cd17"/>
    </linearGradient>
  </defs>
  <g id="Layer_1-2" data-name="Layer 1">
    <g>
      <path class="cls-2" d="m680.38,154.83c-3.99,0-7.39-1.4-10.19-4.2-2.86-2.8-4.29-6.14-4.29-10.01s1.43-7.36,4.29-10.1c2.8-2.8,6.19-4.2,10.19-4.2s7.27,1.4,10.19,4.2c2.86,2.8,4.29,6.17,4.29,10.1s-1.43,7.21-4.29,10.01c-2.92,2.8-6.31,4.2-10.19,4.2Z"/>
      <g>
        <path class="cls-1" d="m806.76,74.12l.89-21.62h9.56v102.13h-9.56l-.89-21.27c-4.17,7.09-9.83,12.72-16.98,16.89-7.15,4.11-14.86,6.17-23.14,6.17-9.71.18-18.71-2.08-26.99-6.79-8.28-4.71-14.8-11.15-19.57-19.35-4.77-8.19-7.06-17.08-6.88-26.67,0-9.83,2.35-18.79,7.06-26.9,4.65-8.04,11.08-14.39,19.3-19.03,8.16-4.65,17.19-6.97,27.08-6.97,8.34,0,16.05,2.08,23.14,6.25,7.15,4.23,12.81,9.95,16.98,17.16Zm-40.3,72.11c7.45.12,14.37-1.74,20.78-5.58,6.4-3.84,11.44-9.07,15.1-15.68,3.66-6.61,5.38-13.73,5.14-21.36.06-7.74-1.76-14.94-5.45-21.58-3.69-6.64-8.71-11.87-15.06-15.68-6.34-3.81-13.18-5.63-20.51-5.45-12.09,0-22.22,4.08-30.38,12.24-8.16,8.16-12.24,18.32-12.24,30.47s4.08,22.22,12.24,30.38c8.16,8.16,18.29,12.24,30.38,12.24Z"/>
        <path class="cls-1" d="m899.78,50.71c9.89,0,18.94,2.32,27.16,6.97,8.16,4.65,14.59,10.99,19.3,19.03,4.65,8.16,6.97,17.13,6.97,26.9.18,9.59-2.12,18.48-6.88,26.67-4.77,8.19-11.29,14.64-19.57,19.35-8.28,4.71-17.28,6.97-26.99,6.79-8.4,0-16.12-2.08-23.14-6.25-7.15-4.17-12.78-9.89-16.89-17.16v55.67h-10.46V52.5h9.56l.89,21.27c4.17-7.09,9.83-12.72,16.98-16.89,7.09-4.11,14.77-6.17,23.05-6.17Zm.27,95.7c12.21,0,22.37-4.11,30.47-12.33,8.1-8.1,12.15-18.26,12.15-30.47s-4.05-22.4-12.15-30.56c-8.1-8.22-18.26-12.33-30.47-12.33-7.45-.18-14.37,1.68-20.78,5.58-6.4,3.9-11.42,9.19-15.06,15.86-3.63,6.67-5.36,13.82-5.18,21.45.06,11.97,4.05,22.1,11.97,30.38,7.86,8.28,17.54,12.42,29.04,12.42Z"/>
        <path class="cls-1" d="m1028.9,50.71c9.89,0,18.94,2.32,27.16,6.97,8.16,4.65,14.59,10.99,19.3,19.03,4.65,8.16,6.97,17.13,6.97,26.9.18,9.59-2.12,18.48-6.88,26.67-4.77,8.19-11.29,14.64-19.57,19.35-8.28,4.71-17.28,6.97-26.99,6.79-8.4,0-16.11-2.08-23.14-6.25-7.15-4.17-12.78-9.89-16.89-17.16v55.67h-10.45V52.5h9.56l.89,21.27c4.17-7.09,9.83-12.72,16.98-16.89,7.09-4.11,14.77-6.17,23.05-6.17Zm.27,95.7c12.21,0,22.37-4.11,30.47-12.33,8.1-8.1,12.15-18.26,12.15-30.47s-4.05-22.4-12.15-30.56c-8.1-8.22-18.26-12.33-30.47-12.33-7.45-.18-14.37,1.68-20.78,5.58-6.4,3.9-11.42,9.19-15.06,15.86-3.63,6.67-5.36,13.82-5.18,21.45.06,11.97,4.05,22.1,11.97,30.38,7.86,8.28,17.54,12.42,29.04,12.42Z"/>
      </g>
      <g>
        <path class="cls-1" d="m130.81,65.13c-10.64-15.01-21.64-30.53-28.49-51.07l-4.69-14.06-6.18,2.83-3.74,11.22c-5.12,15.35-12.56,27.9-20.43,39.52,2.98,4.56,6.06,8.92,9.12,13.23,6.4-9.16,13-19.14,18.61-30.63,6.92,14.19,15.36,26.09,23.06,36.95,14.85,20.94,27.22,38.39,20.94,61.78-3.1,11.57-11.57,21.32-23.11,26.27-16.51,7.08-32.78,5.16-45.12-2.14-5.31,2.73-11.18,4.61-17.41,5.46,10.91,9.61,25.55,15.51,41.64,15.51,33.62,0,60.98-25.74,60.98-57.38,0-21.96-12.24-39.22-25.19-57.49Z"/>
        <path class="cls-3" d="m67.89,74.95c-7.47-10.53-15.18-21.42-19.99-35.83l-2.71-8.13-5.7,2.61-1.84,5.52c-4.81,14.41-12.52,25.3-19.99,35.83C6.68,90.45-3.57,104.92,1.2,125.43c2.63,11.29,10.54,20.99,21.69,25.84,31.64,13.77,62.67-7.76,62.67-35.99,0-15.41-8.58-27.51-17.67-40.33Z"/>
      </g>
      <g>
        <path class="cls-1" d="m275.29,47.76c7.15,0,14,1.38,20.55,4.16,6.55,2.77,12.21,6.6,16.98,11.48,4.77,4.89,8.52,10.71,11.26,17.47,2.74,6.76,4.11,13.84,4.11,21.22s-1.36,14.46-4.07,21.22c-2.71,6.76-6.48,12.55-11.3,17.38-4.83,4.88-10.51,8.73-17.07,11.53-6.55,2.8-13.37,4.2-20.46,4.2-6.31,0-12.27-1.22-17.87-3.66-5.6-2.44-10.49-5.9-14.65-10.37v39.81l-23.23,6.47V49.55h20.1l1.97,13.05c4.23-4.65,9.26-8.28,15.1-10.9,5.84-2.62,12.03-3.93,18.59-3.93Zm-24.04,76.85c5.9,5.96,13.31,8.94,22.25,8.94s16.35-2.98,22.25-8.94c5.9-5.96,8.85-13.46,8.85-22.52s-2.95-16.59-8.85-22.61c-6.02-6.02-13.43-9.02-22.25-9.02s-16.26,3.01-22.16,9.02c-5.96,5.96-8.94,13.49-8.94,22.61s2.95,16.56,8.85,22.52Z"/>
        <path class="cls-1" d="m403.43,48.66c2.26,0,4.5.18,6.7.54v23.68c-4.05-.66-7.33-.98-9.83-.98-8.64,0-15.31,2.5-20.02,7.51-4.71,5-7.06,11.92-7.06,20.73v54.51h-23.23V49.55h19.93l1.97,13.4c3.99-4.47,8.73-7.97,14.21-10.5,5.48-2.53,11.26-3.8,17.33-3.8Z"/>
        <path class="cls-1" d="m448.73,49.55v105.08h-23.23V49.55h23.23Z"/>
        <path class="cls-1" d="m531.03,47.76c13.94,0,24.87,3.9,32.79,11.71,7.8,7.92,11.71,18.85,11.71,32.79v62.37h-23.23v-55.22c0-10.01-2.03-17.36-6.08-22.07-4.05-4.71-10.34-7.06-18.85-7.06s-15.73,2.74-20.55,8.22c-4.83,5.48-7.24,13.34-7.24,23.59v52.54h-23.23V49.55h20.1l1.79,12.15c8.76-9.29,19.69-13.94,32.79-13.94Z"/>
        <path class="cls-1" d="m631.48,21.27v36.38h20.51v20.79h-20.51v76.61h-23.2v-76.61h-19.76v-20.79h19.76v-29.93l23.2-6.44Z"/>
        <path class="cls-1" d="m425.5,30.65V6.71l23.23-6.44v30.38"/>
      </g>
    </g>
  </g>
</svg>