<svg xmlns="http://www.w3.org/2000/svg" viewBox="0 0 390 760" role="img">
  <defs><pattern id="dots" width="13.6" height="13.6" patternUnits="userSpaceOnUse"><rect width="13.6" height="13.6" fill="#e2e8f0"/><circle cx="6.8" cy="6.8" r="1" fill="#cbd5e1"/></pattern></defs>
  <rect x="2" y="2" rx="44" fill="#f8fafc" stroke="#cbd5e1" stroke-width="4"/>
  <g><rect x="16" y="16" rx="12" fill="#ffffff" stroke="#e2e8f0" stroke-width="2"/><circle cx="37.1" cy="48" r="7.4" fill="#f3343c"/><rect x="66.8" y="38.7" width="18.6" height="18.6" rx="5.2" fill="#2563eb"/><rect x="101.6" y="38.7" width="18.6" height="18.6" rx="5.2" fill="#94a3b8"/><rect x="136.3" y="38.7" width="18.6" height="18.6" rx="5.2" fill="#94a3b8"/><rect x="281" y="36.8" width="80.6" height="22.3" rx="11.2" fill="#f3343c"/></g>
  <g><rect x="16" y="88" width="358" height="330.9" rx="12" fill="url(#dots)"/><rect x="113" y="140.5" width="171.5" height="238.2" rx="4" fill="#94a3b8" fill-opacity="0.35"/><rect x="109.2" y="134.3" width="171.5" height="238.2" rx="4" fill="#ffffff"/><rect x="129.8" y="158.1" width="130.4" height="109.6" rx="3.7" fill="#e2e8f0"/><path d="M142.9 248 L179.4 204.2 L202.8 230.5 L221.1 212.9 L247.1 248 Z" fill="#94a3b8" fill-opacity="0.55" stroke="#94a3b8" stroke-width="1.9" stroke-linejoin="round"/><circle cx="226.3" cy="188.8" r="9.9" fill="#94a3b8"/><rect x="143.5" y="291.6" width="102.9" height="8.7" rx="4.3" fill="#94a3b8"/><rect x="160.7" y="315.4" width="68.6" height="6.2" rx="3.1" fill="#cbd5e1"/><rect x="129.8" y="158.1" width="130.4" height="109.6" fill="none" stroke="#2563eb" stroke-width="1.9"/><circle cx="129.8" cy="158.1" r="4.3" fill="#ffffff" stroke="#2563eb" stroke-width="1.9"/><circle cx="260.2" cy="158.1" r="4.3" fill="#ffffff" stroke="#2563eb" stroke-width="1.9"/><circle cx="129.8" cy="267.7" r="4.3" fill="#ffffff" stroke="#2563eb" stroke-width="1.9"/><circle cx="260.2" cy="267.7" r="4.3" fill="#ffffff" stroke="#2563eb" stroke-width="1.9"/></g>
  <g><rect x="16" y="426.9" width="358" height="263.1" rx="12" fill="#ffffff" stroke="#e2e8f0" stroke-width="2"/><rect x="182.6" y="431.8" width="24.8" height="3.1" rx="1.6" fill="#cbd5e1"/><rect x="25.9" y="441.8" width="161.1" height="6.2" rx="3.1" fill="#94a3b8"/><rect x="25.9" y="465.3" width="79.9" height="79.9" rx="3.7" fill="#e2e8f0"/><path d="M33.9 530.8 L56.3 498.9 L70.7 518.1 L81.8 505.3 L97.8 530.8 Z" fill="#94a3b8" fill-opacity="0.55" stroke="#94a3b8" stroke-width="1.9" stroke-linejoin="round"/><circle cx="85" cy="487.7" r="7.2" fill="#94a3b8"/><rect x="112" y="465.3" width="79.9" height="79.9" rx="3.7" fill="#e2e8f0"/><path d="M120 530.8 L142.4 498.9 L156.7 518.1 L167.9 505.3 L183.9 530.8 Z" fill="#94a3b8" fill-opacity="0.55" stroke="#94a3b8" stroke-width="1.9" stroke-linejoin="round"/><circle cx="171.1" cy="487.7" r="7.2" fill="#94a3b8"/><rect x="198.1" y="465.3" width="79.9" height="79.9" rx="3.7" fill="#e2e8f0"/><path d="M206.1 530.8 L228.5 498.9 L242.8 518.1 L254 505.3 L270 530.8 Z" fill="#94a3b8" fill-opacity="0.55" stroke="#94a3b8" stroke-width="1.9" stroke-linejoin="round"/><circle cx="257.2" cy="487.7" r="7.2" fill="#94a3b8"/><rect x="284.2" y="465.3" width="79.9" height="79.9" rx="3.7" fill="#e2e8f0"/><path d="M292.2 530.8 L314.5 498.9 L328.9 518.1 L340.1 505.3 L356.1 530.8 Z" fill="#94a3b8" fill-opacity="0.55" stroke="#94a3b8" stroke-width="1.9" stroke-linejoin="round"/><circle cx="343.3" cy="487.7" r="7.2" fill="#94a3b8"/><rect x="25.9" y="551.4" width="79.9" height="79.9" rx="3.7" fill="#e2e8f0"/><path d="M33.9 616.9 L56.3 585 L70.7 604.1 L81.8 591.4 L97.8 616.9 Z" fill="#94a3b8" fill-opacity="0.55" stroke="#94a3b8" stroke-width="1.9" stroke-linejoin="round"/><circle cx="85" cy="573.8" r="7.2" fill="#94a3b8"/><rect x="112" y="551.4" width="79.9" height="79.9" rx="3.7" fill="#e2e8f0"/><path d="M120 616.9 L142.4 585 L156.7 604.1 L167.9 591.4 L183.9 616.9 Z" fill="#94a3b8" fill-opacity="0.55" stroke="#94a3b8" stroke-width="1.9" stroke-linejoin="round"/><circle cx="171.1" cy="573.8" r="7.2" fill="#94a3b8"/><rect x="198.1" y="551.4" width="79.9" height="79.9" rx="3.7" fill="#e2e8f0"/><path d="M206.1 616.9 L228.5 585 L242.8 604.1 L254 591.4 L270 616.9 Z" fill="#94a3b8" fill-opacity="0.55" stroke="#94a3b8" stroke-width="1.9" stroke-linejoin="round"/><circle cx="257.2" cy="573.8" r="7.2" fill="#94a3b8"/><rect x="284.2" y="551.4" width="79.9" height="79.9" rx="3.7" fill="#e2e8f0"/><path d="M292.2 616.9 L314.5 585 L328.9 604.1 L340.1 591.4 L356.1 616.9 Z" fill="#94a3b8" fill-opacity="0.55" stroke="#94a3b8" stroke-width="1.9" stroke-linejoin="round"/><circle cx="343.3" cy="573.8" r="7.2" fill="#94a3b8"/></g>
  <g><rect x="16" y="698" rx="10" fill="#1e293b"/><rect x="27.2" y="711.7" width="18.6" height="18.6" rx="5.2" fill="#2563eb"/><rect x="61.9" y="711.7" width="18.6" height="18.6" rx="5.2" fill="#94a3b8"/><rect x="96.6" y="711.7" width="18.6" height="18.6" rx="5.2" fill="#94a3b8"/><rect x="131.3" y="711.7" width="18.6" height="18.6" rx="5.2" fill="#94a3b8"/><rect x="166" y="711.7" width="18.6" height="18.6" rx="5.2" fill="#94a3b8"/><rect x="200.8" y="711.7" width="18.6" height="18.6" rx="5.2" fill="#94a3b8"/></g>
</svg>
